<?xml version="1.0" encoding="utf-8"?>
<!-- Generator: Adobe Illustrator 26.0.1, SVG Export Plug-In . SVG Version: 6.00 Build 0)  -->
<svg version="1.1" id="Layer_1" xmlns="http://www.w3.org/2000/svg" xmlns:xlink="http://www.w3.org/1999/xlink" x="0px" y="0px"
	 viewBox="0 0 547 138" style="enable-background:new 0 0 547 138;" xml:space="preserve">
<style type="text/css">
	.st0{fill:#0088CF;}
</style>
<path d="M420.6,85.8c0,9.9-19.4,13.5-21,13.5c-2.9,0-11.3-3-11.2-7.5V50.3h32.2 M456.2,50.3l-9.4-14.4h-90.7l9.4,14.5
	c2.1,0,5.4,0,7.2,0V88c0,7.3,29.7,21.7,37.1,21.7c3.1,0,8.7-2.4,10.3-2.4c1.2,0,0.7,0.5,1,0.4v17.6c5.4,4.5,10.8,8.4,16.5,12.3V50.4
	h18.6V50.3z"/>
<path d="M145.9,50.3l-9.5-14.5h-19.2c-0.1,0-48.2-35.9-65.9-35.9C45-0.1,36.4,1,30,7c2.9,2.9,15.5,11.5,19.8,11.5
	c1.2,0,13-2.9,14.2-2.9c12.3,0,28.3,13.4,38.9,20.2h-103l9.5,14.5h29.1c5,4.7,8.7,13.7,8.7,18.4c0,6.5-7.8,14.4-14.7,14.4
	c-0.5,0-10.4-11.8-17.9-11.8c-3.2,0-7.6,3.1-7.6,7.3c0,12.1,17.5,24,26.9,24c9.5,0,27.9-11.1,27.9-25.4c0-7.8-5.6-19.1-12.5-27h27.2
	v75.3l14.6,12V50.3h15.8v74.8l15.5,12.4V50.3"/>
<path d="M179.5,50.4l21.2-0.1l-9.4-14.4h-50.4l9.5,14.5h17.9c4.3,4.4,6.6,11,6.6,15.7c0,11.6-10.3,15.7-18.8,15.7
	c-5.6,0-9.7-9.3-19.1-9.3c-0.6,0-5.6-0.4-5.6,3.4c0,18.8,55.2,57.8,66.3,57.8c0.7,0,3.7-2.1,3.7-3.9c0-2-31.1-21.6-36.2-28.1
	c10.8-6.4,24.5-11.4,24.5-24.3C189.6,69.6,184.3,58.3,179.5,50.4"/>
<path d="M451.3,35.9l9.5,14.5h39.4v30c-11.8-10.4-26.9-19.6-39.9-19.6c-3.5,0-11.7,1.3-14.2,6.7c5.5,5,11.4,9.9,16.9,13.9
	c3.3-5.6,7.2-5.9,11.5-5.9c7.4,0,15.3,5.3,23,10.5l-48,22c4,3.6,8.4,7.1,12.4,10.1l38.2-17.7v26.3l17.8,10.9V50.4h29l-9.8-14.5"/>
<path d="M303.7,79.8c0,9.1-15.1,20.6-22,20.6c-7.5,0-10.8-8-10.8-12.5c0-10.5,8.8-15.9,17.9-15.9C292.7,71.9,303.7,73,303.7,79.8
	 M361,50.3l-9.4-14.4H195.9l8.2,13.2c0.5,0.5,1,0.9,1.4,1.4l19-0.1c4.7,6.2,9.2,12.7,9.2,18.7c0,6.4-5.3,9.7-12,15.7
	c-4.1-4.3-14.6-11.7-19.6-11.7c-3.2,0-3.7,2.7-3.7,4.7c0,16.8,36.7,44,48.1,50.7c3.9,2.3,10.2,6.8,11.4,6.8c2,0,3.7-2.8,3.7-4.2
	c0-2.7-29.4-23.5-32.8-27.9c9.6-6.2,19.6-14.1,19.6-23.8c0-8.4-7.9-21.9-12-29h66.4c0.4,20,0.5,21.2,0.2,21.6
	c-6.6-8.4-13.7-14.2-20.6-14.2c-12.4,0-24.2,10.5-24.2,24.5c0,12.8,23.1,30.3,33.5,30.3c3.8,0,8.5-1.4,11.1-5.4v19.9l16.4,10.9V50.3
	H335v76.8l15,10.9V50.3H361z"/>

</svg>
